<mxfile host="app.diagrams.net" agent="Mozilla/5.0 (Windows NT 10.0; Win64; x64) AppleWebKit/537.36 (KHTML, like Gecko) Chrome/126.0.0.0 Safari/537.36 OPR/112.0.0.0" version="24.7.16">
  <diagram id="C5RBs43oDa-KdzZeNtuy" name="Page-1">
    <mxGraphModel dx="1925" dy="1205" grid="0" gridSize="10" guides="1" tooltips="1" connect="1" arrows="1" fold="1" page="0" pageScale="1" pageWidth="827" pageHeight="1169" background="#FFFFFF" math="0" shadow="0">
      <root>
        <mxCell id="WIyWlLk6GJQsqaUBKTNV-0" />
        <mxCell id="WIyWlLk6GJQsqaUBKTNV-1" parent="WIyWlLk6GJQsqaUBKTNV-0" />
        <mxCell id="tv2J-FE0nnP710K55CML-6" style="edgeStyle=orthogonalEdgeStyle;rounded=0;orthogonalLoop=1;jettySize=auto;html=1;exitX=1;exitY=0.5;exitDx=0;exitDy=0;labelBackgroundColor=none;strokeColor=#DDA15E;fontColor=default;" edge="1" parent="WIyWlLk6GJQsqaUBKTNV-1" source="tv2J-FE0nnP710K55CML-1" target="tv2J-FE0nnP710K55CML-3">
          <mxGeometry relative="1" as="geometry" />
        </mxCell>
        <mxCell id="tv2J-FE0nnP710K55CML-1" value="INPUT&lt;div&gt;TECLADO (KBD)&lt;/div&gt;" style="shape=parallelogram;perimeter=parallelogramPerimeter;whiteSpace=wrap;html=1;fixedSize=1;fontStyle=1;fontFamily=Verdana;labelBackgroundColor=none;fillColor=#BC6C25;strokeColor=#DDA15E;fontColor=#FEFAE0;" vertex="1" parent="WIyWlLk6GJQsqaUBKTNV-1">
          <mxGeometry x="-63" width="190" height="50" as="geometry" />
        </mxCell>
        <mxCell id="tv2J-FE0nnP710K55CML-8" style="edgeStyle=orthogonalEdgeStyle;rounded=0;orthogonalLoop=1;jettySize=auto;html=1;exitX=1;exitY=0.5;exitDx=0;exitDy=0;entryX=0;entryY=0.5;entryDx=0;entryDy=0;labelBackgroundColor=none;strokeColor=#DDA15E;fontColor=default;" edge="1" parent="WIyWlLk6GJQsqaUBKTNV-1" source="tv2J-FE0nnP710K55CML-3" target="tv2J-FE0nnP710K55CML-7">
          <mxGeometry relative="1" as="geometry" />
        </mxCell>
        <mxCell id="tv2J-FE0nnP710K55CML-3" value="DIRECCION ÚLTIMO&lt;div&gt;PIXEL EN SCREEN (24575)&lt;/div&gt;" style="shape=parallelogram;perimeter=parallelogramPerimeter;whiteSpace=wrap;html=1;fixedSize=1;fontStyle=1;fontFamily=Verdana;labelBackgroundColor=none;fillColor=#BC6C25;strokeColor=#DDA15E;fontColor=#FEFAE0;" vertex="1" parent="WIyWlLk6GJQsqaUBKTNV-1">
          <mxGeometry x="172" width="220" height="50" as="geometry" />
        </mxCell>
        <mxCell id="tv2J-FE0nnP710K55CML-10" value="" style="edgeStyle=orthogonalEdgeStyle;rounded=0;orthogonalLoop=1;jettySize=auto;html=1;exitX=0.5;exitY=1;exitDx=0;exitDy=0;labelBackgroundColor=none;strokeColor=#DDA15E;fontColor=default;" edge="1" parent="WIyWlLk6GJQsqaUBKTNV-1" source="tv2J-FE0nnP710K55CML-7" target="tv2J-FE0nnP710K55CML-9">
          <mxGeometry relative="1" as="geometry" />
        </mxCell>
        <mxCell id="tv2J-FE0nnP710K55CML-7" value="DIRECCION PIXEL&lt;div&gt;ACTUAL (PIX_ACT)&lt;/div&gt;" style="shape=parallelogram;perimeter=parallelogramPerimeter;whiteSpace=wrap;html=1;fixedSize=1;fontStyle=1;fontFamily=Verdana;labelBackgroundColor=none;fillColor=#BC6C25;strokeColor=#DDA15E;fontColor=#FEFAE0;" vertex="1" parent="WIyWlLk6GJQsqaUBKTNV-1">
          <mxGeometry x="442" width="190" height="50" as="geometry" />
        </mxCell>
        <mxCell id="tv2J-FE0nnP710K55CML-12" value="" style="edgeStyle=orthogonalEdgeStyle;rounded=0;orthogonalLoop=1;jettySize=auto;html=1;labelBackgroundColor=none;strokeColor=#DDA15E;fontColor=default;" edge="1" parent="WIyWlLk6GJQsqaUBKTNV-1" source="tv2J-FE0nnP710K55CML-9" target="tv2J-FE0nnP710K55CML-11">
          <mxGeometry relative="1" as="geometry" />
        </mxCell>
        <mxCell id="tv2J-FE0nnP710K55CML-9" value="GUARDAR KBD EN EL AUX (D)" style="whiteSpace=wrap;html=1;fontFamily=Verdana;fontStyle=1;labelBackgroundColor=none;fillColor=#BC6C25;strokeColor=#DDA15E;fontColor=#FEFAE0;" vertex="1" parent="WIyWlLk6GJQsqaUBKTNV-1">
          <mxGeometry x="247" y="100" width="120" height="60" as="geometry" />
        </mxCell>
        <mxCell id="tv2J-FE0nnP710K55CML-14" value="" style="edgeStyle=orthogonalEdgeStyle;rounded=0;orthogonalLoop=1;jettySize=auto;html=1;labelBackgroundColor=none;strokeColor=#DDA15E;fontColor=default;" edge="1" parent="WIyWlLk6GJQsqaUBKTNV-1" source="tv2J-FE0nnP710K55CML-11" target="tv2J-FE0nnP710K55CML-13">
          <mxGeometry relative="1" as="geometry" />
        </mxCell>
        <mxCell id="tv2J-FE0nnP710K55CML-17" value="" style="edgeStyle=orthogonalEdgeStyle;rounded=0;orthogonalLoop=1;jettySize=auto;html=1;labelBackgroundColor=none;strokeColor=#DDA15E;fontColor=default;" edge="1" parent="WIyWlLk6GJQsqaUBKTNV-1" source="tv2J-FE0nnP710K55CML-11" target="tv2J-FE0nnP710K55CML-16">
          <mxGeometry relative="1" as="geometry" />
        </mxCell>
        <mxCell id="tv2J-FE0nnP710K55CML-11" value="¿TECLA&amp;nbsp;&lt;div&gt;PRESIONADA?&lt;/div&gt;" style="rhombus;whiteSpace=wrap;html=1;fontFamily=Verdana;fontStyle=1;labelBackgroundColor=none;fillColor=#BC6C25;strokeColor=#DDA15E;fontColor=#FEFAE0;" vertex="1" parent="WIyWlLk6GJQsqaUBKTNV-1">
          <mxGeometry x="229.5" y="190" width="155" height="90" as="geometry" />
        </mxCell>
        <mxCell id="tv2J-FE0nnP710K55CML-23" style="edgeStyle=orthogonalEdgeStyle;rounded=0;orthogonalLoop=1;jettySize=auto;html=1;exitX=0.5;exitY=1;exitDx=0;exitDy=0;labelBackgroundColor=none;strokeColor=#DDA15E;fontColor=default;" edge="1" parent="WIyWlLk6GJQsqaUBKTNV-1" source="tv2J-FE0nnP710K55CML-13" target="tv2J-FE0nnP710K55CML-20">
          <mxGeometry relative="1" as="geometry" />
        </mxCell>
        <mxCell id="tv2J-FE0nnP710K55CML-13" value="FLAG = -1" style="whiteSpace=wrap;html=1;fontFamily=Verdana;fontStyle=1;labelBackgroundColor=none;fillColor=#BC6C25;strokeColor=#DDA15E;fontColor=#FEFAE0;" vertex="1" parent="WIyWlLk6GJQsqaUBKTNV-1">
          <mxGeometry x="457" y="222.5" width="120" height="25" as="geometry" />
        </mxCell>
        <mxCell id="tv2J-FE0nnP710K55CML-15" value="&lt;b&gt;&lt;font face=&quot;Verdana&quot;&gt;SI&lt;/font&gt;&lt;/b&gt;" style="text;strokeColor=none;align=center;fillColor=none;html=1;verticalAlign=middle;whiteSpace=wrap;rounded=0;labelBackgroundColor=none;fontColor=#FEFAE0;" vertex="1" parent="WIyWlLk6GJQsqaUBKTNV-1">
          <mxGeometry x="377" y="205" width="60" height="30" as="geometry" />
        </mxCell>
        <mxCell id="tv2J-FE0nnP710K55CML-21" style="edgeStyle=orthogonalEdgeStyle;rounded=0;orthogonalLoop=1;jettySize=auto;html=1;exitX=0.5;exitY=1;exitDx=0;exitDy=0;entryX=0.5;entryY=0;entryDx=0;entryDy=0;labelBackgroundColor=none;strokeColor=#DDA15E;fontColor=default;" edge="1" parent="WIyWlLk6GJQsqaUBKTNV-1" source="tv2J-FE0nnP710K55CML-16" target="tv2J-FE0nnP710K55CML-20">
          <mxGeometry relative="1" as="geometry" />
        </mxCell>
        <mxCell id="tv2J-FE0nnP710K55CML-16" value="FLAG = 0" style="whiteSpace=wrap;html=1;fontFamily=Verdana;fontStyle=1;labelBackgroundColor=none;fillColor=#BC6C25;strokeColor=#DDA15E;fontColor=#FEFAE0;" vertex="1" parent="WIyWlLk6GJQsqaUBKTNV-1">
          <mxGeometry x="37" y="222.5" width="120" height="25" as="geometry" />
        </mxCell>
        <mxCell id="tv2J-FE0nnP710K55CML-18" value="&lt;b&gt;&lt;font face=&quot;Verdana&quot;&gt;NO&lt;/font&gt;&lt;/b&gt;" style="text;strokeColor=none;align=center;fillColor=none;html=1;verticalAlign=middle;whiteSpace=wrap;rounded=0;labelBackgroundColor=none;fontColor=#FEFAE0;" vertex="1" parent="WIyWlLk6GJQsqaUBKTNV-1">
          <mxGeometry x="177" y="205" width="60" height="30" as="geometry" />
        </mxCell>
        <mxCell id="tv2J-FE0nnP710K55CML-25" value="" style="edgeStyle=orthogonalEdgeStyle;rounded=0;orthogonalLoop=1;jettySize=auto;html=1;entryX=1;entryY=0.5;entryDx=0;entryDy=0;labelBackgroundColor=none;strokeColor=#DDA15E;fontColor=default;" edge="1" parent="WIyWlLk6GJQsqaUBKTNV-1" source="tv2J-FE0nnP710K55CML-20" target="tv2J-FE0nnP710K55CML-24">
          <mxGeometry relative="1" as="geometry" />
        </mxCell>
        <mxCell id="tv2J-FE0nnP710K55CML-20" value="GUARDAR FLAG EN AUX" style="whiteSpace=wrap;html=1;fontFamily=Verdana;fontStyle=1;labelBackgroundColor=none;fillColor=#BC6C25;strokeColor=#DDA15E;fontColor=#FEFAE0;" vertex="1" parent="WIyWlLk6GJQsqaUBKTNV-1">
          <mxGeometry x="222" y="348" width="170" height="35" as="geometry" />
        </mxCell>
        <mxCell id="tv2J-FE0nnP710K55CML-27" value="" style="edgeStyle=orthogonalEdgeStyle;rounded=0;orthogonalLoop=1;jettySize=auto;html=1;exitX=0.5;exitY=1;exitDx=0;exitDy=0;labelBackgroundColor=none;strokeColor=#DDA15E;fontColor=default;" edge="1" parent="WIyWlLk6GJQsqaUBKTNV-1" source="tv2J-FE0nnP710K55CML-24" target="tv2J-FE0nnP710K55CML-26">
          <mxGeometry relative="1" as="geometry" />
        </mxCell>
        <mxCell id="tv2J-FE0nnP710K55CML-24" value="EN LA DIRECCION DE MEMORIA DE PIX_ACT GUARDAR EL VALOR DE FLAG" style="whiteSpace=wrap;html=1;fontFamily=Verdana;fontStyle=1;labelBackgroundColor=none;fillColor=#BC6C25;strokeColor=#DDA15E;fontColor=#FEFAE0;" vertex="1" parent="WIyWlLk6GJQsqaUBKTNV-1">
          <mxGeometry x="-103" y="330" width="220" height="70.5" as="geometry" />
        </mxCell>
        <mxCell id="tv2J-FE0nnP710K55CML-30" style="edgeStyle=orthogonalEdgeStyle;rounded=0;orthogonalLoop=1;jettySize=auto;html=1;exitX=1;exitY=0.5;exitDx=0;exitDy=0;entryX=0;entryY=0.5;entryDx=0;entryDy=0;labelBackgroundColor=none;strokeColor=#DDA15E;fontColor=default;" edge="1" parent="WIyWlLk6GJQsqaUBKTNV-1" source="tv2J-FE0nnP710K55CML-26" target="tv2J-FE0nnP710K55CML-29">
          <mxGeometry relative="1" as="geometry" />
        </mxCell>
        <mxCell id="tv2J-FE0nnP710K55CML-26" value="GUARDAR DIRECCION DE PIX_ACT EN AUX" style="whiteSpace=wrap;html=1;fontFamily=Verdana;fontStyle=1;labelBackgroundColor=none;fillColor=#BC6C25;strokeColor=#DDA15E;fontColor=#FEFAE0;" vertex="1" parent="WIyWlLk6GJQsqaUBKTNV-1">
          <mxGeometry x="-78" y="451" width="170" height="60" as="geometry" />
        </mxCell>
        <mxCell id="tv2J-FE0nnP710K55CML-32" value="" style="edgeStyle=orthogonalEdgeStyle;rounded=0;orthogonalLoop=1;jettySize=auto;html=1;exitX=1;exitY=0.5;exitDx=0;exitDy=0;labelBackgroundColor=none;strokeColor=#DDA15E;fontColor=default;" edge="1" parent="WIyWlLk6GJQsqaUBKTNV-1" source="tv2J-FE0nnP710K55CML-29" target="tv2J-FE0nnP710K55CML-31">
          <mxGeometry relative="1" as="geometry" />
        </mxCell>
        <mxCell id="tv2J-FE0nnP710K55CML-29" value="DIRECCION PRIMER&lt;div&gt;PIXEL EN SCREEN (16384)&lt;/div&gt;" style="shape=parallelogram;perimeter=parallelogramPerimeter;whiteSpace=wrap;html=1;fixedSize=1;fontStyle=1;fontFamily=Verdana;labelBackgroundColor=none;fillColor=#BC6C25;strokeColor=#DDA15E;fontColor=#FEFAE0;" vertex="1" parent="WIyWlLk6GJQsqaUBKTNV-1">
          <mxGeometry x="137" y="456" width="220" height="50" as="geometry" />
        </mxCell>
        <mxCell id="tv2J-FE0nnP710K55CML-34" value="" style="edgeStyle=orthogonalEdgeStyle;rounded=0;orthogonalLoop=1;jettySize=auto;html=1;labelBackgroundColor=none;strokeColor=#DDA15E;fontColor=default;" edge="1" parent="WIyWlLk6GJQsqaUBKTNV-1" source="tv2J-FE0nnP710K55CML-31" target="tv2J-FE0nnP710K55CML-33">
          <mxGeometry relative="1" as="geometry" />
        </mxCell>
        <mxCell id="tv2J-FE0nnP710K55CML-31" value="RESTAMOS LA DIRECCION DE PIX_ACT CON LA DEL PRIMER PIXEL&lt;div&gt;(D-A)&lt;/div&gt;" style="whiteSpace=wrap;html=1;fontFamily=Verdana;fontStyle=1;labelBackgroundColor=none;fillColor=#BC6C25;strokeColor=#DDA15E;fontColor=#FEFAE0;" vertex="1" parent="WIyWlLk6GJQsqaUBKTNV-1">
          <mxGeometry x="392" y="444.75" width="270" height="72.5" as="geometry" />
        </mxCell>
        <mxCell id="tv2J-FE0nnP710K55CML-41" value="" style="edgeStyle=orthogonalEdgeStyle;rounded=0;orthogonalLoop=1;jettySize=auto;html=1;labelBackgroundColor=none;strokeColor=#DDA15E;fontColor=default;" edge="1" parent="WIyWlLk6GJQsqaUBKTNV-1" source="tv2J-FE0nnP710K55CML-33" target="tv2J-FE0nnP710K55CML-40">
          <mxGeometry relative="1" as="geometry" />
        </mxCell>
        <mxCell id="tv2J-FE0nnP710K55CML-43" style="edgeStyle=orthogonalEdgeStyle;rounded=0;orthogonalLoop=1;jettySize=auto;html=1;exitX=0;exitY=0.5;exitDx=0;exitDy=0;entryX=0.5;entryY=0;entryDx=0;entryDy=0;labelBackgroundColor=none;strokeColor=#DDA15E;fontColor=default;" edge="1" parent="WIyWlLk6GJQsqaUBKTNV-1" source="tv2J-FE0nnP710K55CML-33" target="tv2J-FE0nnP710K55CML-3">
          <mxGeometry relative="1" as="geometry">
            <mxPoint x="307" y="-80" as="targetPoint" />
            <Array as="points">
              <mxPoint x="447" y="640" />
              <mxPoint x="-213" y="640" />
              <mxPoint x="-213" y="-80" />
              <mxPoint x="282" y="-80" />
            </Array>
          </mxGeometry>
        </mxCell>
        <mxCell id="tv2J-FE0nnP710K55CML-33" value="¿LA RESTA (D-A)&amp;nbsp;&lt;div&gt;ES &amp;lt;= 0?&lt;/div&gt;" style="rhombus;whiteSpace=wrap;html=1;fontFamily=Verdana;fontStyle=1;labelBackgroundColor=none;fillColor=#BC6C25;strokeColor=#DDA15E;fontColor=#FEFAE0;" vertex="1" parent="WIyWlLk6GJQsqaUBKTNV-1">
          <mxGeometry x="447" y="580" width="160" height="126.5" as="geometry" />
        </mxCell>
        <mxCell id="tv2J-FE0nnP710K55CML-39" value="&lt;b&gt;&lt;font face=&quot;Verdana&quot;&gt;NO&lt;/font&gt;&lt;/b&gt;" style="text;strokeColor=none;align=center;fillColor=none;html=1;verticalAlign=middle;whiteSpace=wrap;rounded=0;labelBackgroundColor=none;fontColor=#FEFAE0;" vertex="1" parent="WIyWlLk6GJQsqaUBKTNV-1">
          <mxGeometry x="602" y="610" width="60" height="30" as="geometry" />
        </mxCell>
        <mxCell id="tv2J-FE0nnP710K55CML-42" style="edgeStyle=orthogonalEdgeStyle;rounded=0;orthogonalLoop=1;jettySize=auto;html=1;exitX=0.5;exitY=0;exitDx=0;exitDy=0;entryX=1;entryY=0.5;entryDx=0;entryDy=0;labelBackgroundColor=none;strokeColor=#DDA15E;fontColor=default;" edge="1" parent="WIyWlLk6GJQsqaUBKTNV-1" source="tv2J-FE0nnP710K55CML-40" target="tv2J-FE0nnP710K55CML-20">
          <mxGeometry relative="1" as="geometry">
            <mxPoint x="782" y="350" as="targetPoint" />
            <Array as="points">
              <mxPoint x="782" y="366" />
            </Array>
          </mxGeometry>
        </mxCell>
        <mxCell id="tv2J-FE0nnP710K55CML-40" value="RESTAMOS 1 A LA DIRECCION DE PIX_ACT (M=M-1)" style="whiteSpace=wrap;html=1;fontFamily=Verdana;fontStyle=1;labelBackgroundColor=none;fillColor=#BC6C25;strokeColor=#DDA15E;fontColor=#FEFAE0;" vertex="1" parent="WIyWlLk6GJQsqaUBKTNV-1">
          <mxGeometry x="687" y="614.87" width="190" height="56.75" as="geometry" />
        </mxCell>
        <mxCell id="tv2J-FE0nnP710K55CML-44" value="&lt;font face=&quot;Verdana&quot;&gt;&lt;b&gt;SI&lt;/b&gt;&lt;/font&gt;" style="text;strokeColor=none;align=center;fillColor=none;html=1;verticalAlign=middle;whiteSpace=wrap;rounded=0;labelBackgroundColor=none;fontColor=#FEFAE0;" vertex="1" parent="WIyWlLk6GJQsqaUBKTNV-1">
          <mxGeometry x="382" y="610" width="60" height="30" as="geometry" />
        </mxCell>
        <mxCell id="tv2J-FE0nnP710K55CML-45" value="" style="shape=flexArrow;endArrow=classic;html=1;rounded=0;strokeColor=#DDA15E;fontColor=#FEFAE0;fillColor=#BC6C25;" edge="1" parent="WIyWlLk6GJQsqaUBKTNV-1">
          <mxGeometry width="50" height="50" relative="1" as="geometry">
            <mxPoint x="-145" y="22" as="sourcePoint" />
            <mxPoint x="-84" y="22" as="targetPoint" />
          </mxGeometry>
        </mxCell>
        <mxCell id="tv2J-FE0nnP710K55CML-46" value="&lt;font&gt;INICIO&lt;/font&gt;" style="text;html=1;align=center;verticalAlign=middle;resizable=0;points=[];autosize=1;strokeColor=none;fillColor=none;fontColor=#000000;fontStyle=1;fontFamily=Verdana;" vertex="1" parent="WIyWlLk6GJQsqaUBKTNV-1">
          <mxGeometry x="-149" y="41" width="60" height="26" as="geometry" />
        </mxCell>
      </root>
    </mxGraphModel>
  </diagram>
</mxfile>
